<svg width="682" height="94" viewBox="0 0 682 94" fill="none" xmlns="http://www.w3.org/2000/svg">
<path d="M6.5369 87C6.5369 87 14.7771 59.2544 28.5318 50.4022L29.0433 49.081C29.0433 49.081 26.4858 50.5343 22.1379 52.6483C17.7901 54.7622 13.3144 54.3218 10.629 53.7052C7.94356 53.0887 1.29396 50.4022 2.0612 42.0785C2.82845 33.7548 10.629 32.9621 10.629 32.9621C10.629 32.9621 7.69035 29.3999 7.43204 26.6202C7.00705 22.0468 9.62003 18.8211 13.5701 16.711C18.3205 14.1735 22.5413 16.1492 27.069 19.0892C32.9973 22.9387 35.4371 35.4724 35.4371 35.4724C35.4371 35.4724 35.4371 29.9233 35.4371 25.6954C35.4371 21.4674 37.1845 15.8219 41.831 12.8795C46.5146 9.91363 51.5497 8.25523 55.8975 12.8795C60.2453 17.5038 58.3272 23.7135 58.3272 23.7135C58.3272 23.7135 67.5344 22.3923 69.3246 29.9233C71.1149 37.4542 69.3246 40.3609 64.2095 44.1924C59.0944 48.024 43.2377 45.1173 43.2377 45.1173C43.2377 45.1173 54.4928 48.1165 57.5599 55.5409C60.627 62.9653 59.0944 68.1065 59.0944 68.1065C59.0944 68.1065 58.0714 73.3914 50.6545 75.109C43.2376 76.8266 41.831 71.1453 41.831 71.1453C41.831 72.0702 37.2275 80.5945 29.0433 77.6193C20.8591 74.6441 22.1379 68.1065 22.1379 65.4641C22.1379 62.8217 27.3809 51.9876 27.3809 51.9876" stroke="#00E068" stroke-width="4"/>
<path d="M90.1953 8.5625L97.5 29.1875L104.766 8.5625H112.461V37H106.582V29.2266L107.168 15.8086L99.4922 37H95.4688L87.8125 15.8281L88.3984 29.2266V37H82.5391V8.5625H90.1953ZM134.688 24.6758H123.438V32.293H136.641V37H117.578V8.5625H136.602V13.3086H123.438V20.0859H134.688V24.6758ZM162.578 33.4062C161.523 34.6693 160.033 35.6523 158.105 36.3555C156.178 37.0456 154.043 37.3906 151.699 37.3906C149.238 37.3906 147.077 36.8568 145.215 35.7891C143.366 34.7083 141.934 33.1458 140.918 31.1016C139.915 29.0573 139.401 26.6549 139.375 23.8945V21.9609C139.375 19.1224 139.85 16.668 140.801 14.5977C141.764 12.5143 143.145 10.9258 144.941 9.83203C146.751 8.72526 148.867 8.17188 151.289 8.17188C154.661 8.17188 157.298 8.97917 159.199 10.5938C161.1 12.1953 162.227 14.5326 162.578 17.6055H156.875C156.615 15.9779 156.035 14.7865 155.137 14.0312C154.251 13.276 153.027 12.8984 151.465 12.8984C149.473 12.8984 147.956 13.6471 146.914 15.1445C145.872 16.6419 145.345 18.8685 145.332 21.8242V23.6406C145.332 26.6224 145.898 28.875 147.031 30.3984C148.164 31.9219 149.824 32.6836 152.012 32.6836C154.212 32.6836 155.781 32.2148 156.719 31.2773V26.375H151.387V22.0586H162.578V33.4062ZM183.398 31.1406H173.125L171.172 37H164.941L175.527 8.5625H180.957L191.602 37H185.371L183.398 31.1406ZM174.707 26.3945H181.816L178.242 15.75L174.707 26.3945ZM105.898 70.4258C105.898 73.2253 105.404 75.6797 104.414 77.7891C103.424 79.8984 102.005 81.526 100.156 82.6719C98.3203 83.8177 96.2109 84.3906 93.8281 84.3906C91.4714 84.3906 89.3685 83.8242 87.5195 82.6914C85.6706 81.5586 84.2383 79.944 83.2227 77.8477C82.207 75.7383 81.6927 73.3164 81.6797 70.582V69.1758C81.6797 66.3763 82.181 63.9154 83.1836 61.793C84.1992 59.6576 85.625 58.0234 87.4609 56.8906C89.3099 55.7448 91.4193 55.1719 93.7891 55.1719C96.1589 55.1719 98.2617 55.7448 100.098 56.8906C101.947 58.0234 103.372 59.6576 104.375 61.793C105.391 63.9154 105.898 66.3698 105.898 69.1562V70.4258ZM99.9609 69.1367C99.9609 66.1549 99.4271 63.8893 98.3594 62.3398C97.2917 60.7904 95.7682 60.0156 93.7891 60.0156C91.8229 60.0156 90.306 60.7839 89.2383 62.3203C88.1706 63.8438 87.6302 66.0833 87.6172 69.0391V70.4258C87.6172 73.3294 88.151 75.582 89.2188 77.1836C90.2865 78.7852 91.8229 79.5859 93.8281 79.5859C95.7943 79.5859 97.3047 78.8177 98.3594 77.2812C99.4141 75.7318 99.9479 73.4792 99.9609 70.5234V69.1367ZM127.266 72.3789H116.016V84H110.156V55.5625H128.672V60.3086H116.016V67.6523H127.266V72.3789ZM149.18 71.6758H137.93V79.293H151.133V84H132.07V55.5625H151.094V60.3086H137.93V67.0859H149.18V71.6758ZM165.098 73.5898H160.43V84H154.57V55.5625H165.137C168.496 55.5625 171.087 56.3112 172.91 57.8086C174.733 59.306 175.645 61.4219 175.645 64.1562C175.645 66.0964 175.221 67.7174 174.375 69.0195C173.542 70.3086 172.272 71.3372 170.566 72.1055L176.719 83.7266V84H170.43L165.098 73.5898ZM160.43 68.8438H165.156C166.628 68.8438 167.767 68.4727 168.574 67.7305C169.382 66.9753 169.785 65.9401 169.785 64.625C169.785 63.2839 169.401 62.2292 168.633 61.4609C167.878 60.6927 166.712 60.3086 165.137 60.3086H160.43V68.8438ZM200.547 60.3086H191.836V84H185.977V60.3086H177.383V55.5625H200.547V60.3086ZM217.617 78.1406H207.344L205.391 84H199.16L209.746 55.5625H215.176L225.82 84H219.59L217.617 78.1406ZM208.926 73.3945H216.035L212.461 62.75L208.926 73.3945Z" fill="#00E068"/>
<path d="M269.957 61.8398C270.999 61.8398 271.845 61.5534 272.496 60.9805C273.147 60.4076 273.486 59.6458 273.512 58.6953H278.805C278.792 60.1276 278.401 61.4427 277.633 62.6406C276.865 63.8255 275.81 64.75 274.469 65.4141C273.141 66.0651 271.669 66.3906 270.055 66.3906C267.034 66.3906 264.651 65.4336 262.906 63.5195C261.161 61.5924 260.289 58.9362 260.289 55.5508V55.1797C260.289 51.9245 261.155 49.3268 262.887 47.3867C264.618 45.4466 266.995 44.4766 270.016 44.4766C272.659 44.4766 274.775 45.2318 276.363 46.7422C277.965 48.2396 278.779 50.2383 278.805 52.7383H273.512C273.486 51.6445 273.147 50.7591 272.496 50.082C271.845 49.3919 270.986 49.0469 269.918 49.0469C268.603 49.0469 267.607 49.5286 266.93 50.4922C266.266 51.4427 265.934 52.9922 265.934 55.1406V55.7266C265.934 57.901 266.266 59.4635 266.93 60.4141C267.594 61.3646 268.603 61.8398 269.957 61.8398ZM281.148 55.2383C281.148 53.1419 281.552 51.2734 282.359 49.6328C283.167 47.9922 284.326 46.7227 285.836 45.8242C287.359 44.9258 289.124 44.4766 291.129 44.4766C293.98 44.4766 296.305 45.349 298.102 47.0938C299.911 48.8385 300.921 51.2083 301.129 54.2031L301.168 55.6484C301.168 58.8906 300.263 61.4948 298.453 63.4609C296.643 65.4141 294.215 66.3906 291.168 66.3906C288.121 66.3906 285.686 65.4141 283.863 63.4609C282.053 61.5078 281.148 58.8516 281.148 55.4922V55.2383ZM286.793 55.6484C286.793 57.6536 287.171 59.1901 287.926 60.2578C288.681 61.3125 289.762 61.8398 291.168 61.8398C292.535 61.8398 293.603 61.319 294.371 60.2773C295.139 59.2227 295.523 57.543 295.523 55.2383C295.523 53.2721 295.139 51.7487 294.371 50.668C293.603 49.5872 292.522 49.0469 291.129 49.0469C289.749 49.0469 288.681 49.5872 287.926 50.668C287.171 51.7357 286.793 53.3958 286.793 55.6484ZM303.766 55.2383C303.766 53.1419 304.169 51.2734 304.977 49.6328C305.784 47.9922 306.943 46.7227 308.453 45.8242C309.977 44.9258 311.741 44.4766 313.746 44.4766C316.598 44.4766 318.922 45.349 320.719 47.0938C322.529 48.8385 323.538 51.2083 323.746 54.2031L323.785 55.6484C323.785 58.8906 322.88 61.4948 321.07 63.4609C319.26 65.4141 316.832 66.3906 313.785 66.3906C310.738 66.3906 308.303 65.4141 306.48 63.4609C304.671 61.5078 303.766 58.8516 303.766 55.4922V55.2383ZM309.41 55.6484C309.41 57.6536 309.788 59.1901 310.543 60.2578C311.298 61.3125 312.379 61.8398 313.785 61.8398C315.152 61.8398 316.22 61.319 316.988 60.2773C317.757 59.2227 318.141 57.543 318.141 55.2383C318.141 53.2721 317.757 51.7487 316.988 50.668C316.22 49.5872 315.139 49.0469 313.746 49.0469C312.366 49.0469 311.298 49.5872 310.543 50.668C309.788 51.7357 309.41 53.3958 309.41 55.6484ZM326.383 55.2383C326.383 53.1419 326.786 51.2734 327.594 49.6328C328.401 47.9922 329.56 46.7227 331.07 45.8242C332.594 44.9258 334.358 44.4766 336.363 44.4766C339.215 44.4766 341.539 45.349 343.336 47.0938C345.146 48.8385 346.155 51.2083 346.363 54.2031L346.402 55.6484C346.402 58.8906 345.497 61.4948 343.688 63.4609C341.878 65.4141 339.449 66.3906 336.402 66.3906C333.355 66.3906 330.921 65.4141 329.098 63.4609C327.288 61.5078 326.383 58.8516 326.383 55.4922V55.2383ZM332.027 55.6484C332.027 57.6536 332.405 59.1901 333.16 60.2578C333.915 61.3125 334.996 61.8398 336.402 61.8398C337.77 61.8398 338.837 61.319 339.605 60.2773C340.374 59.2227 340.758 57.543 340.758 55.2383C340.758 53.2721 340.374 51.7487 339.605 50.668C338.837 49.5872 337.757 49.0469 336.363 49.0469C334.983 49.0469 333.915 49.5872 333.16 50.668C332.405 51.7357 332.027 53.3958 332.027 55.6484ZM361.754 50.1602C360.986 50.056 360.309 50.0039 359.723 50.0039C357.587 50.0039 356.188 50.7266 355.523 52.1719V66H349.879V44.8672H355.211L355.367 47.3867C356.5 45.4466 358.069 44.4766 360.074 44.4766C360.699 44.4766 361.285 44.5612 361.832 44.7305L361.754 50.1602ZM376.363 50.1602C375.595 50.056 374.918 50.0039 374.332 50.0039C372.197 50.0039 370.797 50.7266 370.133 52.1719V66H364.488V44.8672H369.82L369.977 47.3867C371.109 45.4466 372.678 44.4766 374.684 44.4766C375.309 44.4766 375.895 44.5612 376.441 44.7305L376.363 50.1602ZM388.434 66.3906C385.335 66.3906 382.809 65.4401 380.855 63.5391C378.915 61.638 377.945 59.1055 377.945 55.9414V55.3945C377.945 53.2721 378.355 51.3776 379.176 49.7109C379.996 48.0312 381.155 46.7422 382.652 45.8438C384.163 44.9323 385.882 44.4766 387.809 44.4766C390.699 44.4766 392.971 45.388 394.625 47.2109C396.292 49.0339 397.125 51.6185 397.125 54.9648V57.2695H383.668C383.85 58.6497 384.397 59.7565 385.309 60.5898C386.233 61.4232 387.398 61.8398 388.805 61.8398C390.979 61.8398 392.678 61.0521 393.902 59.4766L396.676 62.582C395.829 63.7799 394.684 64.7174 393.238 65.3945C391.793 66.0586 390.191 66.3906 388.434 66.3906ZM387.789 49.0469C386.669 49.0469 385.758 49.4245 385.055 50.1797C384.365 50.9349 383.922 52.0156 383.727 53.4219H391.578V52.9727C391.552 51.7227 391.214 50.7591 390.562 50.082C389.911 49.3919 388.987 49.0469 387.789 49.0469ZM409.43 55.2383C409.43 51.918 410.165 49.2943 411.637 47.3672C413.121 45.4401 415.152 44.4766 417.73 44.4766C419.996 44.4766 421.799 45.3424 423.141 47.0742L423.512 44.8672H428.473V74.125H422.809V64.1836C421.507 65.6549 419.801 66.3906 417.691 66.3906C415.178 66.3906 413.173 65.4141 411.676 63.4609C410.178 61.5078 409.43 58.7669 409.43 55.2383ZM415.074 55.6484C415.074 57.6667 415.426 59.2031 416.129 60.2578C416.845 61.3125 417.848 61.8398 419.137 61.8398C420.868 61.8398 422.092 61.1497 422.809 59.7695V51.0391C422.105 49.7109 420.895 49.0469 419.176 49.0469C417.874 49.0469 416.865 49.5742 416.148 50.6289C415.432 51.6836 415.074 53.3568 415.074 55.6484ZM445.582 63.8516C444.189 65.5443 442.262 66.3906 439.801 66.3906C437.535 66.3906 435.803 65.7396 434.605 64.4375C433.421 63.1354 432.815 61.2279 432.789 58.7148V44.8672H438.434V58.5195C438.434 60.7201 439.436 61.8203 441.441 61.8203C443.355 61.8203 444.671 61.1562 445.387 59.8281V44.8672H451.051V66H445.738L445.582 63.8516ZM465.035 66.3906C461.936 66.3906 459.41 65.4401 457.457 63.5391C455.517 61.638 454.547 59.1055 454.547 55.9414V55.3945C454.547 53.2721 454.957 51.3776 455.777 49.7109C456.598 48.0312 457.757 46.7422 459.254 45.8438C460.764 44.9323 462.483 44.4766 464.41 44.4766C467.301 44.4766 469.573 45.388 471.227 47.2109C472.893 49.0339 473.727 51.6185 473.727 54.9648V57.2695H460.27C460.452 58.6497 460.999 59.7565 461.91 60.5898C462.835 61.4232 464 61.8398 465.406 61.8398C467.581 61.8398 469.28 61.0521 470.504 59.4766L473.277 62.582C472.431 63.7799 471.285 64.7174 469.84 65.3945C468.395 66.0586 466.793 66.3906 465.035 66.3906ZM464.391 49.0469C463.271 49.0469 462.359 49.4245 461.656 50.1797C460.966 50.9349 460.523 52.0156 460.328 53.4219H468.18V52.9727C468.154 51.7227 467.815 50.7591 467.164 50.082C466.513 49.3919 465.589 49.0469 464.391 49.0469ZM496.637 66.3906C493.538 66.3906 491.012 65.4401 489.059 63.5391C487.118 61.638 486.148 59.1055 486.148 55.9414V55.3945C486.148 53.2721 486.559 51.3776 487.379 49.7109C488.199 48.0312 489.358 46.7422 490.855 45.8438C492.366 44.9323 494.085 44.4766 496.012 44.4766C498.902 44.4766 501.174 45.388 502.828 47.2109C504.495 49.0339 505.328 51.6185 505.328 54.9648V57.2695H491.871C492.053 58.6497 492.6 59.7565 493.512 60.5898C494.436 61.4232 495.602 61.8398 497.008 61.8398C499.182 61.8398 500.882 61.0521 502.105 59.4766L504.879 62.582C504.033 63.7799 502.887 64.7174 501.441 65.3945C499.996 66.0586 498.395 66.3906 496.637 66.3906ZM495.992 49.0469C494.872 49.0469 493.961 49.4245 493.258 50.1797C492.568 50.9349 492.125 52.0156 491.93 53.4219H499.781V52.9727C499.755 51.7227 499.417 50.7591 498.766 50.082C498.115 49.3919 497.19 49.0469 495.992 49.0469ZM496.5 36H502.652L497.242 42.0547H492.652L496.5 36ZM529.957 60.1602C529.957 59.4701 529.612 58.9297 528.922 58.5391C528.245 58.1354 527.151 57.7773 525.641 57.4648C520.615 56.4102 518.102 54.2747 518.102 51.0586C518.102 49.1836 518.876 47.6211 520.426 46.3711C521.988 45.1081 524.026 44.4766 526.539 44.4766C529.221 44.4766 531.363 45.1081 532.965 46.3711C534.579 47.6341 535.387 49.2747 535.387 51.293H529.742C529.742 50.4857 529.482 49.8216 528.961 49.3008C528.44 48.7669 527.626 48.5 526.52 48.5C525.569 48.5 524.833 48.7148 524.312 49.1445C523.792 49.5742 523.531 50.1211 523.531 50.7852C523.531 51.4102 523.824 51.918 524.41 52.3086C525.009 52.6862 526.012 53.0182 527.418 53.3047C528.824 53.5781 530.009 53.8906 530.973 54.2422C533.954 55.3359 535.445 57.2305 535.445 59.9258C535.445 61.8529 534.618 63.4154 532.965 64.6133C531.311 65.7982 529.176 66.3906 526.559 66.3906C524.788 66.3906 523.212 66.0781 521.832 65.4531C520.465 64.8151 519.391 63.9492 518.609 62.8555C517.828 61.7487 517.438 60.5573 517.438 59.2812H522.789C522.841 60.2839 523.212 61.0521 523.902 61.5859C524.592 62.1198 525.517 62.3867 526.676 62.3867C527.757 62.3867 528.57 62.1849 529.117 61.7812C529.677 61.3646 529.957 60.8242 529.957 60.1602ZM538.219 55.2383C538.219 53.1419 538.622 51.2734 539.43 49.6328C540.237 47.9922 541.396 46.7227 542.906 45.8242C544.43 44.9258 546.194 44.4766 548.199 44.4766C551.051 44.4766 553.375 45.349 555.172 47.0938C556.982 48.8385 557.991 51.2083 558.199 54.2031L558.238 55.6484C558.238 58.8906 557.333 61.4948 555.523 63.4609C553.714 65.4141 551.285 66.3906 548.238 66.3906C545.191 66.3906 542.757 65.4141 540.934 63.4609C539.124 61.5078 538.219 58.8516 538.219 55.4922V55.2383ZM543.863 55.6484C543.863 57.6536 544.241 59.1901 544.996 60.2578C545.751 61.3125 546.832 61.8398 548.238 61.8398C549.605 61.8398 550.673 61.319 551.441 60.2773C552.21 59.2227 552.594 57.543 552.594 55.2383C552.594 53.2721 552.21 51.7487 551.441 50.668C550.673 49.5872 549.592 49.0469 548.199 49.0469C546.819 49.0469 545.751 49.5872 544.996 50.668C544.241 51.7357 543.863 53.3958 543.863 55.6484ZM549.312 36H555.465L550.055 42.0547H545.465L549.312 36ZM577.184 47.1719C578.681 45.375 580.562 44.4766 582.828 44.4766C587.411 44.4766 589.736 47.1393 589.801 52.4648V66H584.156V52.6211C584.156 51.4102 583.896 50.5182 583.375 49.9453C582.854 49.3594 581.988 49.0664 580.777 49.0664C579.124 49.0664 577.926 49.7044 577.184 50.9805V66H571.539V36H577.184V47.1719ZM593.18 55.2383C593.18 53.1419 593.583 51.2734 594.391 49.6328C595.198 47.9922 596.357 46.7227 597.867 45.8242C599.391 44.9258 601.155 44.4766 603.16 44.4766C606.012 44.4766 608.336 45.349 610.133 47.0938C611.943 48.8385 612.952 51.2083 613.16 54.2031L613.199 55.6484C613.199 58.8906 612.294 61.4948 610.484 63.4609C608.674 65.4141 606.246 66.3906 603.199 66.3906C600.152 66.3906 597.717 65.4141 595.895 63.4609C594.085 61.5078 593.18 58.8516 593.18 55.4922V55.2383ZM598.824 55.6484C598.824 57.6536 599.202 59.1901 599.957 60.2578C600.712 61.3125 601.793 61.8398 603.199 61.8398C604.566 61.8398 605.634 61.319 606.402 60.2773C607.171 59.2227 607.555 57.543 607.555 55.2383C607.555 53.2721 607.171 51.7487 606.402 50.668C605.634 49.5872 604.553 49.0469 603.16 49.0469C601.78 49.0469 600.712 49.5872 599.957 50.668C599.202 51.7357 598.824 53.3958 598.824 55.6484ZM622.652 44.8672V67.1523C622.652 69.4831 622.034 71.293 620.797 72.582C619.56 73.8841 617.776 74.5352 615.445 74.5352C614.469 74.5352 613.538 74.4245 612.652 74.2031V69.7305C613.329 69.8477 613.922 69.9062 614.43 69.9062C616.135 69.9062 616.988 69.0013 616.988 67.1914V44.8672H622.652ZM616.539 39.3984C616.539 38.5521 616.819 37.8555 617.379 37.3086C617.952 36.7617 618.727 36.4883 619.703 36.4883C620.68 36.4883 621.448 36.7617 622.008 37.3086C622.581 37.8555 622.867 38.5521 622.867 39.3984C622.867 40.2578 622.574 40.9609 621.988 41.5078C621.415 42.0547 620.654 42.3281 619.703 42.3281C618.753 42.3281 617.984 42.0547 617.398 41.5078C616.826 40.9609 616.539 40.2578 616.539 39.3984ZM636.793 66.3906C633.694 66.3906 631.168 65.4401 629.215 63.5391C627.275 61.638 626.305 59.1055 626.305 55.9414V55.3945C626.305 53.2721 626.715 51.3776 627.535 49.7109C628.355 48.0312 629.514 46.7422 631.012 45.8438C632.522 44.9323 634.241 44.4766 636.168 44.4766C639.059 44.4766 641.331 45.388 642.984 47.2109C644.651 49.0339 645.484 51.6185 645.484 54.9648V57.2695H632.027C632.21 58.6497 632.757 59.7565 633.668 60.5898C634.592 61.4232 635.758 61.8398 637.164 61.8398C639.339 61.8398 641.038 61.0521 642.262 59.4766L645.035 62.582C644.189 63.7799 643.043 64.7174 641.598 65.3945C640.152 66.0586 638.551 66.3906 636.793 66.3906ZM636.148 49.0469C635.029 49.0469 634.117 49.4245 633.414 50.1797C632.724 50.9349 632.281 52.0156 632.086 53.4219H639.938V52.9727C639.911 51.7227 639.573 50.7591 638.922 50.082C638.271 49.3919 637.346 49.0469 636.148 49.0469ZM658.609 47.2305C658.609 46.332 658.909 45.6029 659.508 45.043C660.12 44.4831 660.882 44.2031 661.793 44.2031C662.717 44.2031 663.479 44.4831 664.078 45.043C664.69 45.6029 664.996 46.332 664.996 47.2305C664.996 48.1159 664.697 48.8385 664.098 49.3984C663.499 49.9453 662.73 50.2188 661.793 50.2188C660.868 50.2188 660.107 49.9453 659.508 49.3984C658.909 48.8385 658.609 48.1159 658.609 47.2305ZM660.562 73.1289L657.613 71.5859L658.316 70.3164C659.189 68.7279 659.638 67.1458 659.664 65.5703V61.1953H664.43L664.41 65.1016C664.397 66.5469 664.033 68.0052 663.316 69.4766C662.6 70.9479 661.682 72.1654 660.562 73.1289ZM678.902 54.8867C678.902 57.8294 678.479 60.6615 677.633 63.3828C676.786 66.1042 675.569 68.5065 673.98 70.5898C672.392 72.6732 670.693 74.1055 668.883 74.8867L667.789 71.8984C669.638 70.5052 671.096 68.3568 672.164 65.4531C673.232 62.5495 673.785 59.2096 673.824 55.4336V54.3984C673.824 50.5052 673.29 47.0742 672.223 44.1055C671.168 41.1367 669.69 38.9102 667.789 37.4258L668.883 34.4375C670.654 35.2057 672.32 36.599 673.883 38.6172C675.458 40.6354 676.676 42.9857 677.535 45.668C678.408 48.3503 678.863 51.1302 678.902 54.0078V54.8867Z" fill="#5E5E5E"/>
<rect x="241" y="10" width="6" height="81" fill="#5E5E5E"/>
</svg>
