<svg width="262" height="97" viewBox="0 0 262 97" fill="none" xmlns="http://www.w3.org/2000/svg">
<g filter="url(#filter0_dd)">
<path d="M77.5344 41.8836C77.5344 42.5945 77.6666 43.2234 77.9309 43.7703C78.2043 44.3081 78.5735 44.7729 79.0383 45.1648C79.5123 45.5568 80.0455 45.8712 80.6379 46.1082C81.2395 46.336 81.8638 46.4864 82.511 46.5594C82.511 45.6479 82.5337 44.8413 82.5793 44.1394C82.634 43.4376 82.716 42.8133 82.8254 42.2664C82.9348 41.7104 83.0715 41.2228 83.2356 40.8035C83.4087 40.3842 83.6093 39.9969 83.8371 39.6414C84.2655 38.9943 84.8306 38.4838 85.5324 38.1101C86.2434 37.7364 87.0272 37.5496 87.884 37.5496C88.9686 37.5496 89.7753 37.8595 90.3039 38.4793C90.8417 39.09 91.1106 39.8328 91.1106 40.7078C91.1106 41.601 90.9419 42.4305 90.6047 43.1961C90.2675 43.9617 89.8026 44.6407 89.2102 45.2332C88.6268 45.8165 87.925 46.295 87.1047 46.6687C86.2844 47.0424 85.4003 47.2794 84.4524 47.3797C84.4888 48.0268 84.5162 48.7058 84.5344 49.4168C84.5526 50.1277 84.5617 50.9298 84.5617 51.823C84.5617 52.2696 84.5526 52.739 84.5344 53.2312C84.5162 53.7143 84.4706 54.1928 84.3977 54.6668C84.3339 55.1407 84.2473 55.601 84.1379 56.0476C84.0285 56.4851 83.8873 56.868 83.7141 57.1961C83.4406 57.7612 83.0487 58.3126 82.5383 58.8504C82.037 59.379 81.4035 59.7436 80.6379 59.9441V60.2312H85.5735C86.0748 60.2312 86.4667 60.1355 86.7492 59.9441C87.0409 59.7436 87.2642 59.4884 87.4192 59.1785C87.5832 58.8686 87.688 58.5359 87.7336 58.1805C87.7792 57.825 87.802 57.4786 87.802 57.1414V56.2527H88.7043V57.1414C88.7043 57.7065 88.6542 58.226 88.5539 58.7C88.4628 59.1739 88.2942 59.5887 88.0481 59.9441C87.8111 60.2996 87.483 60.5776 87.0637 60.7781C86.6444 60.9695 86.1067 61.0652 85.4504 61.0652H77.6438V60.2312C78.3182 60.2312 78.9608 60.1355 79.5715 59.9441C80.1913 59.7436 80.688 59.4565 81.0617 59.0828C81.4537 58.6909 81.7544 58.2625 81.9641 57.7976C82.1828 57.3237 82.3423 56.8224 82.4426 56.2937C82.5429 55.756 82.6021 55.2 82.6203 54.6258C82.6477 54.0424 82.6613 53.4637 82.6613 52.8894C82.6613 52.0144 82.6386 51.1303 82.593 50.2371C82.5565 49.3347 82.5292 48.3914 82.511 47.407C81.7636 47.325 81.0344 47.1609 80.3235 46.9148C79.6216 46.6596 78.9973 46.3087 78.4504 45.8621C77.9126 45.4155 77.4751 44.8686 77.1379 44.2215C76.8007 43.5743 76.632 42.8133 76.632 41.9383C76.632 41.0997 76.8508 40.4252 77.2883 39.9148C77.7258 39.3953 78.3274 39.1355 79.093 39.1355C79.6945 39.1355 80.1776 39.3178 80.5422 39.6824C80.9068 40.047 81.0891 40.5392 81.0891 41.159C81.0891 41.8152 80.8931 42.3028 80.5012 42.6219C80.1093 42.9318 79.6125 43.0867 79.011 43.0867V42.2527C79.2753 42.2527 79.535 42.1798 79.7903 42.034C80.0546 41.879 80.1867 41.5965 80.1867 41.1863C80.1867 40.8126 80.0865 40.5209 79.886 40.3113C79.6945 40.0926 79.412 39.9832 79.0383 39.9832C78.6099 39.9832 78.2499 40.1381 77.9582 40.448C77.6757 40.7488 77.5344 41.2273 77.5344 41.8836ZM87.8567 38.3836C87.1366 38.3836 86.5487 38.5613 86.093 38.9168C85.6464 39.2722 85.2955 39.7508 85.0403 40.3523C84.7942 40.9448 84.621 41.6329 84.5207 42.4168C84.4296 43.2006 84.384 44.0301 84.384 44.9051C84.384 45.1876 84.384 45.461 84.384 45.7254C84.384 45.9806 84.3977 46.2403 84.425 46.5047C85.2818 46.4135 86.0611 46.2084 86.7629 45.8894C87.4738 45.5704 88.0845 45.1603 88.5949 44.659C89.1145 44.1577 89.511 43.5789 89.7844 42.9226C90.0669 42.2664 90.2082 41.5555 90.2082 40.7898C90.2082 40.0424 90.0077 39.4545 89.6067 39.0262C89.2056 38.5978 88.6223 38.3836 87.8567 38.3836ZM99.2317 55.6648C99.2317 56.1479 99.2317 56.5626 99.2317 56.909C99.2317 57.2553 99.2408 57.5607 99.259 57.825C99.2772 58.0802 99.2909 58.3081 99.3 58.5086C99.3091 58.7 99.3319 58.8914 99.3684 59.0828C99.4413 59.5659 99.5917 59.9715 99.8195 60.2996C100.047 60.6277 100.376 60.7918 100.804 60.7918C101.123 60.7918 101.374 60.7006 101.556 60.5183C101.747 60.3269 101.893 60.09 101.993 59.8074C102.094 59.5249 102.157 59.2241 102.185 58.9051C102.212 58.586 102.226 58.2898 102.226 58.0164V56.8133H103.128V57.989C103.128 58.4903 103.087 58.9597 103.005 59.3972C102.932 59.8347 102.795 60.2221 102.595 60.5594C102.404 60.8966 102.139 61.1564 101.802 61.3387C101.474 61.5301 101.045 61.6258 100.517 61.6258C99.733 61.6258 99.0995 61.3979 98.6164 60.9422C98.1334 60.4864 97.8235 59.8849 97.6867 59.1375H97.4133C97.2037 59.8484 96.8573 60.4409 96.3742 60.9148C95.8912 61.3888 95.2212 61.6258 94.3645 61.6258C93.7082 61.6258 93.1021 61.489 92.5461 61.2156C91.9992 60.9513 91.5663 60.5548 91.2473 60.0262C90.9374 59.5066 90.7141 58.8959 90.5774 58.1941C90.4498 57.4923 90.386 56.6492 90.386 55.6648V51.9871H90.0988C90.0442 52.3061 89.8892 52.6114 89.634 52.9031C89.3879 53.1948 89.078 53.3406 88.7043 53.3406V52.493C88.9869 52.42 89.2284 52.2788 89.4289 52.0691C89.6386 51.8504 89.8117 51.6134 89.9485 51.3582C90.0852 51.0939 90.19 50.8295 90.2629 50.5652C90.3449 50.3009 90.386 50.0685 90.386 49.868H92.2043V55.6648C92.2043 56.6857 92.2453 57.4969 92.3274 58.0984C92.4094 58.6909 92.5735 59.2058 92.8195 59.6433C93.0292 60.017 93.2981 60.3041 93.6262 60.5047C93.9634 60.6961 94.3462 60.7918 94.7746 60.7918C95.2486 60.7918 95.6496 60.6596 95.9778 60.3953C96.315 60.131 96.5884 59.7664 96.7981 59.3015C97.0168 58.8367 97.1718 58.2989 97.2629 57.6883C97.3632 57.0685 97.4133 56.394 97.4133 55.6648V51.9871H97.1262C97.0715 52.3061 96.9029 52.6114 96.6203 52.9031C96.3469 53.1948 96.0233 53.3406 95.6496 53.3406V52.493C95.9322 52.42 96.1783 52.2788 96.3879 52.0691C96.6067 51.8504 96.7935 51.6134 96.9485 51.3582C97.1125 51.0939 97.231 50.8295 97.3039 50.5652C97.3768 50.3009 97.4133 50.0685 97.4133 49.868H99.2317V55.6648ZM103.702 55.4324C103.702 54.5756 103.807 53.769 104.017 53.0125C104.236 52.256 104.55 51.6088 104.96 51.0711C105.37 50.5242 105.867 50.0958 106.45 49.7859C107.043 49.4669 107.713 49.3074 108.46 49.3074C108.816 49.3074 109.167 49.3484 109.513 49.4305C109.859 49.5125 110.16 49.6492 110.415 49.8406C110.68 50.0229 110.889 50.2508 111.044 50.5242C111.208 50.7976 111.29 51.1303 111.29 51.5222C111.29 52.0053 111.14 52.4291 110.839 52.7937C110.547 53.1583 110.119 53.3406 109.554 53.3406C108.961 53.3406 108.533 53.1583 108.269 52.7937C108.004 52.4291 107.872 51.9552 107.872 51.3719H108.775C108.775 51.6544 108.829 51.9142 108.939 52.1512C109.048 52.379 109.262 52.493 109.581 52.493C109.809 52.493 110.001 52.4246 110.155 52.2879C110.32 52.1512 110.402 51.9051 110.402 51.5496C110.402 51.0756 110.215 50.7247 109.841 50.4969C109.467 50.2599 109.007 50.1414 108.46 50.1414C107.53 50.1414 106.806 50.5926 106.286 51.4949C105.776 52.3881 105.521 53.7097 105.521 55.4597C105.521 56.0249 105.553 56.6173 105.616 57.2371C105.689 57.8478 105.826 58.422 106.027 58.9597C106.236 59.4884 106.528 59.9259 106.902 60.2722C107.275 60.6186 107.777 60.7918 108.405 60.7918C108.952 60.7918 109.399 60.6642 109.745 60.409C110.101 60.1538 110.383 59.8302 110.593 59.4383C110.803 59.0463 110.948 58.618 111.03 58.1531C111.113 57.6883 111.154 57.2416 111.154 56.8133H112.056C112.056 57.2781 111.997 57.7931 111.878 58.3582C111.769 58.9142 111.573 59.4337 111.29 59.9168C111.008 60.3999 110.62 60.8055 110.128 61.1336C109.636 61.4617 109.016 61.6258 108.269 61.6258C107.467 61.6258 106.774 61.4754 106.191 61.1746C105.616 60.8738 105.147 60.4545 104.782 59.9168C104.418 59.379 104.144 58.7319 103.962 57.9754C103.789 57.2189 103.702 56.3712 103.702 55.4324ZM117.989 46.6414C118.609 45.657 119.056 44.7137 119.329 43.8113C119.612 42.8999 119.753 42.0157 119.753 41.159C119.753 40.3751 119.626 39.728 119.37 39.2176C119.124 38.698 118.732 38.4383 118.195 38.4383C117.684 38.4383 117.265 38.6388 116.937 39.0398C116.618 39.4409 116.367 39.965 116.185 40.6121C116.012 41.2592 115.879 41.9884 115.788 42.7996C115.706 43.6108 115.647 44.4357 115.611 45.2742C115.611 45.4747 115.606 45.7026 115.597 45.9578C115.588 46.213 115.579 46.5092 115.57 46.8465C115.56 47.1746 115.556 47.5711 115.556 48.0359C115.556 48.4916 115.556 49.0249 115.556 49.6355C116.057 49.1525 116.508 48.6557 116.909 48.1453C117.31 47.6349 117.67 47.1336 117.989 46.6414ZM120.655 41.0496C120.655 41.9428 120.514 42.8269 120.232 43.7019C119.949 44.5769 119.571 45.4246 119.097 46.2449C118.623 47.0561 118.076 47.8263 117.456 48.5555C116.846 49.2755 116.212 49.9363 115.556 50.5379V51.1258H115.829C116.13 50.6427 116.536 50.2325 117.046 49.8953C117.566 49.5581 118.172 49.3894 118.864 49.3894C119.739 49.3894 120.405 49.6264 120.861 50.1004C121.316 50.5743 121.544 51.1668 121.544 51.8777C121.544 52.2879 121.458 52.6661 121.284 53.0125C121.12 53.3588 120.906 53.6551 120.642 53.9012C120.387 54.1381 120.095 54.3295 119.767 54.4754C119.439 54.6121 119.111 54.6805 118.782 54.6805V54.9676C119.129 54.9676 119.516 55.0086 119.945 55.0906C120.382 55.1726 120.728 55.3458 120.984 55.6101C121.303 55.9018 121.526 56.2573 121.654 56.6765C121.79 57.0867 121.868 57.7019 121.886 58.5222C121.904 59.3972 122.036 59.9943 122.282 60.3133C122.538 60.6323 122.852 60.7918 123.226 60.7918C123.545 60.7918 123.791 60.7052 123.964 60.532C124.146 60.3497 124.283 60.1219 124.374 59.8484C124.465 59.575 124.525 59.2788 124.552 58.9597C124.588 58.6316 124.607 58.3172 124.607 58.0164V56.8133H125.495V57.989C125.495 58.545 125.454 59.0463 125.372 59.493C125.29 59.9396 125.149 60.3224 124.948 60.6414C124.757 60.9604 124.493 61.2019 124.155 61.366C123.818 61.5392 123.39 61.6258 122.87 61.6258C122.415 61.6258 121.973 61.5301 121.544 61.3387C121.116 61.1564 120.801 60.8875 120.601 60.532C120.391 60.213 120.25 59.8347 120.177 59.3972C120.104 58.9597 120.068 58.4812 120.068 57.9617C120.068 57.1414 119.917 56.5079 119.616 56.0613C119.316 55.6056 118.764 55.3777 117.962 55.3777H116.95V54.5437H117.566C117.812 54.5437 118.067 54.4982 118.331 54.407C118.605 54.3068 118.851 54.1609 119.07 53.9695C119.288 53.769 119.466 53.5183 119.603 53.2176C119.739 52.9077 119.808 52.5385 119.808 52.1101C119.808 51.3992 119.648 50.907 119.329 50.6336C119.019 50.3601 118.65 50.2234 118.222 50.2234C117.939 50.2234 117.67 50.2918 117.415 50.4285C117.169 50.5561 116.946 50.7247 116.745 50.9344C116.554 51.1349 116.381 51.3673 116.226 51.6316C116.08 51.8868 115.971 52.1466 115.898 52.4109C115.816 52.6388 115.756 52.894 115.72 53.1765C115.683 53.45 115.652 53.7234 115.624 53.9969C115.597 54.2703 115.579 54.5209 115.57 54.7488C115.56 54.9676 115.556 55.1316 115.556 55.241C115.556 56.3439 115.565 57.3784 115.583 58.3445C115.601 59.3015 115.656 60.2084 115.747 61.0652H113.929C113.856 60.1355 113.806 59.1922 113.779 58.2351C113.751 57.269 113.738 56.394 113.738 55.6101V52.4383C113.583 52.5932 113.405 52.7254 113.204 52.8347C113.013 52.9441 112.835 53.0353 112.671 53.1082C112.471 53.2084 112.266 53.2859 112.056 53.3406V52.493C112.357 52.3653 112.662 52.2195 112.972 52.0555C113.291 51.8823 113.546 51.7228 113.738 51.5769V50.7566C113.738 49.9181 113.742 49.157 113.751 48.4734C113.76 47.7807 113.783 46.9558 113.82 45.9988C113.856 44.8777 113.943 43.8341 114.079 42.868C114.225 41.8927 114.476 40.9858 114.831 40.1472C114.959 39.8282 115.118 39.5183 115.31 39.2176C115.51 38.9077 115.743 38.6251 116.007 38.3699C116.28 38.1147 116.581 37.9142 116.909 37.7683C117.238 37.6225 117.598 37.5496 117.989 37.5496C118.846 37.5496 119.502 37.8686 119.958 38.5066C120.423 39.1355 120.655 39.9832 120.655 41.0496ZM143.296 61.6258C141.911 61.6258 140.762 61.3432 139.851 60.7781C138.939 60.2039 138.206 59.4519 137.65 58.5222C137.103 57.5834 136.715 56.5079 136.488 55.2957C136.269 54.0834 136.159 52.8347 136.159 51.5496C136.159 49.9272 136.314 48.3686 136.624 46.8738C135.622 46.5001 134.774 45.9077 134.081 45.0965C133.389 44.2853 133.042 43.2325 133.042 41.9383C133.042 41.0997 133.261 40.4252 133.698 39.9148C134.136 39.3953 134.738 39.1355 135.503 39.1355C136.105 39.1355 136.588 39.3178 136.952 39.6824C137.317 40.047 137.499 40.5392 137.499 41.159C137.499 41.8152 137.303 42.3028 136.911 42.6219C136.519 42.9318 136.023 43.0867 135.421 43.0867V42.2527C135.685 42.2527 135.945 42.1798 136.2 42.034C136.465 41.879 136.597 41.5965 136.597 41.1863C136.597 40.8126 136.497 40.5209 136.296 40.3113C136.105 40.0926 135.822 39.9832 135.448 39.9832C135.02 39.9832 134.66 40.1381 134.368 40.448C134.086 40.7488 133.945 41.2273 133.945 41.8836C133.945 42.9135 134.218 43.7657 134.765 44.4402C135.321 45.1056 136.018 45.616 136.857 45.9715C137.148 44.7775 137.527 43.6655 137.991 42.6355C138.465 41.5965 139.008 40.7032 139.618 39.9558C140.238 39.2084 140.94 38.6206 141.724 38.1922C142.508 37.7638 143.364 37.5496 144.294 37.5496C145.379 37.5496 146.185 37.8595 146.714 38.4793C147.252 39.09 147.521 39.8328 147.521 40.7078C147.521 41.6831 147.325 42.5808 146.933 43.4012C146.541 44.2215 145.999 44.9278 145.306 45.5203C144.613 46.1036 143.802 46.5639 142.872 46.9012C141.943 47.2384 140.935 47.407 139.851 47.407C139.386 47.407 138.948 47.3751 138.538 47.3113C138.438 47.9858 138.365 48.6876 138.32 49.4168C138.274 50.1459 138.251 50.7794 138.251 51.3172C138.251 52.3107 138.283 53.1948 138.347 53.9695C138.411 54.7443 138.502 55.4324 138.62 56.034C138.748 56.6264 138.903 57.1551 139.085 57.6199C139.277 58.0847 139.495 58.4949 139.741 58.8504C140.17 59.4702 140.698 59.9487 141.327 60.2859C141.965 60.6232 142.613 60.7918 143.269 60.7918C143.788 60.7918 144.335 60.7097 144.909 60.5457C145.493 60.3725 146.017 60.09 146.482 59.698C146.947 59.3061 147.334 58.7866 147.644 58.1394C147.954 57.4923 148.109 56.6948 148.109 55.7469C148.109 54.9448 147.999 54.2657 147.78 53.7097C147.571 53.1446 147.284 52.6844 146.919 52.3289C146.555 51.9734 146.14 51.7182 145.675 51.5633C145.21 51.3992 144.723 51.3172 144.212 51.3172C143.246 51.3172 142.448 51.5906 141.82 52.1375C141.2 52.6752 140.89 53.409 140.89 54.3387C140.89 55.241 141.104 55.8881 141.532 56.2801C141.961 56.672 142.444 56.868 142.982 56.868C143.374 56.868 143.697 56.795 143.952 56.6492C144.208 56.4943 144.408 56.2937 144.554 56.0476C144.7 55.7924 144.8 55.5008 144.855 55.1726C144.919 54.8445 144.95 54.5027 144.95 54.1472H145.839C145.839 55.159 145.629 56.0066 145.21 56.6902C144.791 57.3647 144.048 57.7019 142.982 57.7019C142.444 57.7019 141.988 57.6108 141.614 57.4285C141.241 57.2371 140.931 56.991 140.685 56.6902C140.448 56.3803 140.27 56.0203 140.152 55.6101C140.042 55.2 139.988 54.7762 139.988 54.3387C139.988 53.8191 140.083 53.3269 140.275 52.8621C140.475 52.3972 140.758 51.9871 141.122 51.6316C141.487 51.2762 141.929 50.9982 142.448 50.7976C142.977 50.588 143.565 50.4832 144.212 50.4832C144.832 50.4832 145.424 50.5834 145.989 50.784C146.564 50.9754 147.074 51.2807 147.521 51.7C147.967 52.1193 148.327 52.6661 148.601 53.3406C148.874 54.006 149.011 54.8081 149.011 55.7469C149.011 56.6219 148.874 57.4194 148.601 58.1394C148.327 58.8595 147.94 59.4747 147.439 59.9851C146.937 60.4956 146.336 60.8966 145.634 61.1883C144.932 61.4799 144.153 61.6258 143.296 61.6258ZM139.823 46.5594C140.808 46.5594 141.715 46.4181 142.544 46.1355C143.383 45.8439 144.103 45.4428 144.704 44.9324C145.315 44.4129 145.784 43.7976 146.113 43.0867C146.45 42.3758 146.618 41.6101 146.618 40.7898C146.618 40.0424 146.418 39.4545 146.017 39.0262C145.616 38.5978 145.032 38.3836 144.267 38.3836C143.465 38.3836 142.754 38.6206 142.134 39.0945C141.523 39.5594 140.99 40.1746 140.534 40.9402C140.079 41.6967 139.696 42.5581 139.386 43.5242C139.076 44.4812 138.839 45.4656 138.675 46.4773C139.03 46.532 139.413 46.5594 139.823 46.5594ZM159.374 55.4597C159.374 57.4194 158.982 58.937 158.198 60.0125C157.415 61.088 156.312 61.6258 154.89 61.6258C153.486 61.6258 152.388 61.088 151.595 60.0125C150.802 58.937 150.405 57.4194 150.405 55.4597C150.405 53.5001 150.802 51.9871 151.595 50.9207C152.388 49.8452 153.486 49.3074 154.89 49.3074C155.71 49.3074 156.403 49.4851 156.968 49.8406C157.542 50.1961 158.007 50.6655 158.363 51.2488C158.718 51.823 158.973 52.4793 159.128 53.2176C159.292 53.9467 159.374 54.6941 159.374 55.4597ZM157.542 55.4597C157.542 54.922 157.515 54.3478 157.46 53.7371C157.405 53.1173 157.287 52.5431 157.105 52.0144C156.932 51.4767 156.667 51.0301 156.312 50.6746C155.956 50.3191 155.491 50.1414 154.917 50.1414C154.489 50.1414 154.165 50.2644 153.947 50.5105C153.737 50.7566 153.632 51.0528 153.632 51.3992C153.632 51.7729 153.71 52.0509 153.864 52.2332C154.029 52.4064 154.22 52.493 154.439 52.493C154.758 52.493 154.963 52.379 155.054 52.1512C155.145 51.9142 155.191 51.6544 155.191 51.3719H156.093C156.093 51.937 155.974 52.4064 155.738 52.7801C155.51 53.1538 155.095 53.3406 154.493 53.3406C154.065 53.3406 153.705 53.2084 153.413 52.9441C153.131 52.6798 152.989 52.3243 152.989 51.8777C152.989 51.7319 153.017 51.5405 153.072 51.3035C153.126 51.0574 153.236 50.8204 153.4 50.5926H153.126C152.807 51.0209 152.575 51.6863 152.429 52.5887C152.292 53.4819 152.224 54.4389 152.224 55.4597C152.224 56.116 152.265 56.7631 152.347 57.4012C152.438 58.0301 152.579 58.5997 152.771 59.1101C152.971 59.6114 153.245 60.017 153.591 60.3269C153.937 60.6368 154.37 60.7918 154.89 60.7918C155.728 60.7918 156.38 60.3543 156.845 59.4793C157.31 58.5952 157.542 57.2553 157.542 55.4597ZM172.417 50.1414C172.007 50.1414 171.652 50.2508 171.351 50.4695C171.059 50.6791 170.808 50.9617 170.599 51.3172C170.453 51.5815 170.335 51.9005 170.243 52.2742C170.161 52.6479 170.102 53.0307 170.066 53.4226C170.029 53.8146 170.006 54.1974 169.997 54.5711C169.988 54.9448 169.984 55.2729 169.984 55.5555C169.984 56.1114 169.984 56.6036 169.984 57.032C169.984 57.4604 169.993 57.8751 170.011 58.2762C170.029 58.6772 170.047 59.101 170.066 59.5476C170.084 59.9851 170.12 60.491 170.175 61.0652H168.357C168.32 60.5821 168.288 60.0626 168.261 59.5066C168.234 58.9415 168.211 58.4038 168.193 57.8933C168.174 57.3738 168.165 56.9181 168.165 56.5262C168.165 56.1342 168.165 55.8562 168.165 55.6922V52.9715C168.165 52.5795 168.142 52.215 168.097 51.8777C168.051 51.5405 167.956 51.2443 167.81 50.989C167.673 50.7247 167.473 50.5196 167.208 50.3738C166.953 50.2189 166.62 50.1414 166.21 50.1414C165.663 50.1414 165.212 50.3055 164.857 50.6336C164.501 50.9617 164.223 51.4038 164.023 51.9597C163.904 52.2423 163.818 52.5795 163.763 52.9715C163.708 53.3634 163.667 53.7416 163.64 54.1062C163.613 54.4708 163.594 54.7989 163.585 55.0906C163.576 55.3732 163.572 55.5646 163.572 55.6648C163.572 56.2026 163.572 56.672 163.572 57.073C163.572 57.4741 163.581 57.8706 163.599 58.2625C163.617 58.6544 163.64 59.0691 163.667 59.5066C163.695 59.9441 163.726 60.4637 163.763 61.0652H161.945C161.853 60.1902 161.799 59.3015 161.78 58.3992C161.762 57.4877 161.753 56.5763 161.753 55.6648V51.9871H161.466C161.411 52.3061 161.256 52.6114 161.001 52.9031C160.755 53.1948 160.445 53.3406 160.072 53.3406V52.493C160.354 52.42 160.596 52.2788 160.796 52.0691C161.006 51.8504 161.179 51.6134 161.316 51.3582C161.452 51.0939 161.557 50.8295 161.63 50.5652C161.712 50.3009 161.753 50.0685 161.753 49.868H163.572V51.0437H163.845C164.146 50.5151 164.556 50.0958 165.075 49.7859C165.604 49.4669 166.178 49.3074 166.798 49.3074C167.555 49.3074 168.188 49.4806 168.698 49.8269C169.218 50.1733 169.601 50.5789 169.847 51.0437H170.12C170.366 50.5971 170.745 50.1961 171.255 49.8406C171.766 49.4851 172.349 49.3074 173.005 49.3074C173.607 49.3074 174.122 49.4031 174.55 49.5945C174.978 49.7768 175.325 50.0366 175.589 50.3738C175.863 50.711 176.063 51.1121 176.191 51.5769C176.327 52.0418 176.396 52.5522 176.396 53.1082V55.6648C176.396 56.2937 176.405 56.8953 176.423 57.4695C176.441 58.0346 176.487 58.5496 176.56 59.0144C176.66 59.5795 176.824 60.017 177.052 60.3269C177.289 60.6368 177.594 60.7918 177.968 60.7918C178.278 60.7918 178.524 60.7052 178.706 60.532C178.898 60.3497 179.044 60.1173 179.144 59.8347C179.253 59.5522 179.322 59.2469 179.349 58.9187C179.376 58.5906 179.39 58.2898 179.39 58.0164V56.8133H180.292V57.9617C180.292 58.4812 180.247 58.9643 180.155 59.4109C180.073 59.8575 179.932 60.2449 179.732 60.573C179.54 60.9012 179.28 61.1564 178.952 61.3387C178.633 61.5301 178.219 61.6258 177.708 61.6258C177.189 61.6258 176.71 61.5164 176.273 61.2976C175.835 61.088 175.484 60.7416 175.22 60.2586C174.956 59.7846 174.782 59.2104 174.7 58.5359C174.618 57.8523 174.577 56.8953 174.577 55.6648V53.1082C174.577 52.7163 174.545 52.338 174.482 51.9734C174.418 51.6088 174.304 51.2944 174.14 51.0301C173.985 50.7566 173.766 50.5424 173.484 50.3875C173.201 50.2234 172.846 50.1414 172.417 50.1414ZM192.378 50.1414C191.968 50.1414 191.613 50.2508 191.312 50.4695C191.02 50.6791 190.769 50.9617 190.56 51.3172C190.414 51.5815 190.295 51.9005 190.204 52.2742C190.122 52.6479 190.063 53.0307 190.027 53.4226C189.99 53.8146 189.967 54.1974 189.958 54.5711C189.949 54.9448 189.945 55.2729 189.945 55.5555C189.945 56.1114 189.945 56.6036 189.945 57.032C189.945 57.4604 189.954 57.8751 189.972 58.2762C189.99 58.6772 190.008 59.101 190.027 59.5476C190.045 59.9851 190.081 60.491 190.136 61.0652H188.318C188.281 60.5821 188.249 60.0626 188.222 59.5066C188.195 58.9415 188.172 58.4038 188.154 57.8933C188.135 57.3738 188.126 56.9181 188.126 56.5262C188.126 56.1342 188.126 55.8562 188.126 55.6922V52.9715C188.126 52.5795 188.103 52.215 188.058 51.8777C188.012 51.5405 187.917 51.2443 187.771 50.989C187.634 50.7247 187.433 50.5196 187.169 50.3738C186.914 50.2189 186.581 50.1414 186.171 50.1414C185.624 50.1414 185.173 50.3055 184.818 50.6336C184.462 50.9617 184.184 51.4038 183.984 51.9597C183.865 52.2423 183.779 52.5795 183.724 52.9715C183.669 53.3634 183.628 53.7416 183.601 54.1062C183.573 54.4708 183.555 54.7989 183.546 55.0906C183.537 55.3732 183.532 55.5646 183.532 55.6648C183.532 56.2026 183.532 56.672 183.532 57.073C183.532 57.4741 183.542 57.8706 183.56 58.2625C183.578 58.6544 183.601 59.0691 183.628 59.5066C183.655 59.9441 183.687 60.4637 183.724 61.0652H181.905C181.814 60.1902 181.76 59.3015 181.741 58.3992C181.723 57.4877 181.714 56.5763 181.714 55.6648V51.9871H181.427C181.372 52.3061 181.217 52.6114 180.962 52.9031C180.716 53.1948 180.406 53.3406 180.032 53.3406V52.493C180.315 52.42 180.557 52.2788 180.757 52.0691C180.967 51.8504 181.14 51.6134 181.277 51.3582C181.413 51.0939 181.518 50.8295 181.591 50.5652C181.673 50.3009 181.714 50.0685 181.714 49.868H183.532V51.0437H183.806C184.107 50.5151 184.517 50.0958 185.036 49.7859C185.565 49.4669 186.139 49.3074 186.759 49.3074C187.516 49.3074 188.149 49.4806 188.659 49.8269C189.179 50.1733 189.562 50.5789 189.808 51.0437H190.081C190.327 50.5971 190.706 50.1961 191.216 49.8406C191.726 49.4851 192.31 49.3074 192.966 49.3074C193.568 49.3074 194.083 49.4031 194.511 49.5945C194.939 49.7768 195.286 50.0366 195.55 50.3738C195.823 50.711 196.024 51.1121 196.152 51.5769C196.288 52.0418 196.357 52.5522 196.357 53.1082V55.6648C196.357 56.2937 196.366 56.8953 196.384 57.4695C196.402 58.0346 196.448 58.5496 196.521 59.0144C196.621 59.5795 196.785 60.017 197.013 60.3269C197.25 60.6368 197.555 60.7918 197.929 60.7918C198.239 60.7918 198.485 60.7052 198.667 60.532C198.859 60.3497 199.004 60.1173 199.105 59.8347C199.214 59.5522 199.282 59.2469 199.31 58.9187C199.337 58.5906 199.351 58.2898 199.351 58.0164V56.8133H200.253V57.9617C200.253 58.4812 200.208 58.9643 200.116 59.4109C200.034 59.8575 199.893 60.2449 199.693 60.573C199.501 60.9012 199.241 61.1564 198.913 61.3387C198.594 61.5301 198.18 61.6258 197.669 61.6258C197.15 61.6258 196.671 61.5164 196.234 61.2976C195.796 61.088 195.445 60.7416 195.181 60.2586C194.917 59.7846 194.743 59.2104 194.661 58.5359C194.579 57.8523 194.538 56.8953 194.538 55.6648V53.1082C194.538 52.7163 194.506 52.338 194.443 51.9734C194.379 51.6088 194.265 51.2944 194.101 51.0301C193.946 50.7566 193.727 50.5424 193.445 50.3875C193.162 50.2234 192.807 50.1414 192.378 50.1414ZM200.827 55.4597C200.827 54.603 200.923 53.7963 201.114 53.0398C201.315 52.2833 201.607 51.6316 201.989 51.0847C202.372 50.5288 202.846 50.0958 203.411 49.7859C203.986 49.4669 204.646 49.3074 205.394 49.3074C206.515 49.3074 207.404 49.6446 208.06 50.3191C208.725 50.9845 209.058 51.8413 209.058 52.8894C209.058 53.6004 208.93 54.2338 208.675 54.7898C208.429 55.3367 208.073 55.797 207.609 56.1707C207.144 56.5444 206.592 56.8269 205.954 57.0183C205.316 57.2006 204.614 57.2918 203.849 57.2918H202.728C202.792 57.7019 202.878 58.1121 202.988 58.5222C203.097 58.9324 203.252 59.3061 203.452 59.6433C203.662 59.9715 203.935 60.2449 204.273 60.4637C204.61 60.6824 205.029 60.7918 205.53 60.7918C206.114 60.7918 206.588 60.6687 206.952 60.4226C207.317 60.1765 207.604 59.8621 207.814 59.4793C208.032 59.0965 208.183 58.6681 208.265 58.1941C208.347 57.7202 208.388 57.2599 208.388 56.8133H209.29C209.29 57.4422 209.217 58.0483 209.072 58.6316C208.935 59.2058 208.711 59.7208 208.402 60.1765C208.092 60.6232 207.691 60.9741 207.198 61.2293C206.706 61.4936 206.105 61.6258 205.394 61.6258C203.917 61.6258 202.787 61.1199 202.003 60.1082C201.219 59.0874 200.827 57.5379 200.827 55.4597ZM202.646 56.4441H203.685C204.715 56.4441 205.562 56.157 206.228 55.5828C206.902 54.9995 207.239 54.1472 207.239 53.0262C207.239 52.6889 207.212 52.3517 207.157 52.0144C207.103 51.6681 207.002 51.3536 206.857 51.0711C206.72 50.7885 206.524 50.5652 206.269 50.4012C206.023 50.228 205.695 50.1414 205.284 50.1414C204.719 50.1414 204.264 50.31 203.917 50.6472C203.58 50.9845 203.316 51.4129 203.124 51.9324C202.942 52.4428 202.814 53.017 202.741 53.6551C202.678 54.284 202.646 54.8855 202.646 55.4597V56.4441ZM213.638 51.0437H213.911C214.285 50.4969 214.713 50.073 215.197 49.7722C215.689 49.4624 216.231 49.3074 216.823 49.3074C217.443 49.3074 217.981 49.4806 218.437 49.8269C218.892 50.1733 219.12 50.7202 219.12 51.4676C219.12 52.0053 218.965 52.4519 218.655 52.8074C218.355 53.1629 217.931 53.3406 217.384 53.3406C216.828 53.3406 216.409 53.1674 216.126 52.8211C215.853 52.4747 215.716 51.9916 215.716 51.3719H216.605C216.605 51.6544 216.659 51.9142 216.769 52.1512C216.887 52.379 217.101 52.493 217.411 52.493C217.639 52.493 217.831 52.4155 217.986 52.2605C218.15 52.0965 218.232 51.8413 218.232 51.4949C218.232 51.0392 218.081 50.7019 217.78 50.4832C217.48 50.2553 217.097 50.1414 216.632 50.1414C216.021 50.1414 215.506 50.31 215.087 50.6472C214.677 50.9845 214.353 51.422 214.116 51.9597C214.007 52.2241 213.916 52.5385 213.843 52.9031C213.779 53.2677 213.734 53.6277 213.706 53.9832C213.679 54.3387 213.661 54.6668 213.652 54.9676C213.642 55.2592 213.638 55.4916 213.638 55.6648C213.638 56.2026 213.638 56.672 213.638 57.073C213.638 57.4741 213.647 57.8706 213.665 58.2625C213.683 58.6544 213.706 59.0691 213.734 59.5066C213.761 59.9441 213.793 60.4637 213.829 61.0652H212.011C211.938 60.1902 211.888 59.3243 211.861 58.4676C211.833 57.6017 211.82 56.6765 211.82 55.6922V51.9871H211.532C211.478 52.3061 211.323 52.6114 211.068 52.9031C210.822 53.1948 210.512 53.3406 210.138 53.3406V52.493C210.42 52.42 210.662 52.2788 210.863 52.0691C211.072 51.8504 211.245 51.6134 211.382 51.3582C211.519 51.0939 211.624 50.8295 211.697 50.5652C211.779 50.3009 211.82 50.0685 211.82 49.868H213.638V51.0437ZM219.257 55.4324C219.257 54.5756 219.362 53.769 219.572 53.0125C219.79 52.256 220.105 51.6088 220.515 51.0711C220.925 50.5242 221.422 50.0958 222.005 49.7859C222.598 49.4669 223.267 49.3074 224.015 49.3074C224.37 49.3074 224.721 49.3484 225.068 49.4305C225.414 49.5125 225.715 49.6492 225.97 49.8406C226.234 50.0229 226.444 50.2508 226.599 50.5242C226.763 50.7976 226.845 51.1303 226.845 51.5222C226.845 52.0053 226.695 52.4291 226.394 52.7937C226.102 53.1583 225.674 53.3406 225.109 53.3406C224.516 53.3406 224.088 53.1583 223.823 52.7937C223.559 52.4291 223.427 51.9552 223.427 51.3719H224.329C224.329 51.6544 224.384 51.9142 224.493 52.1512C224.603 52.379 224.817 52.493 225.136 52.493C225.364 52.493 225.555 52.4246 225.71 52.2879C225.874 52.1512 225.956 51.9051 225.956 51.5496C225.956 51.0756 225.769 50.7247 225.396 50.4969C225.022 50.2599 224.562 50.1414 224.015 50.1414C223.085 50.1414 222.361 50.5926 221.841 51.4949C221.331 52.3881 221.075 53.7097 221.075 55.4597C221.075 56.0249 221.107 56.6173 221.171 57.2371C221.244 57.8478 221.381 58.422 221.581 58.9597C221.791 59.4884 222.083 59.9259 222.456 60.2722C222.83 60.6186 223.331 60.7918 223.96 60.7918C224.507 60.7918 224.954 60.6642 225.3 60.409C225.655 60.1538 225.938 59.8302 226.148 59.4383C226.357 59.0463 226.503 58.618 226.585 58.1531C226.667 57.6883 226.708 57.2416 226.708 56.8133H227.611C227.611 57.2781 227.551 57.7931 227.433 58.3582C227.323 58.9142 227.127 59.4337 226.845 59.9168C226.562 60.3999 226.175 60.8055 225.683 61.1336C225.191 61.4617 224.571 61.6258 223.823 61.6258C223.021 61.6258 222.329 61.4754 221.745 61.1746C221.171 60.8738 220.702 60.4545 220.337 59.9168C219.973 59.379 219.699 58.7319 219.517 57.9754C219.344 57.2189 219.257 56.3712 219.257 55.4324ZM228.308 55.4597C228.308 54.603 228.404 53.7963 228.595 53.0398C228.795 52.2833 229.087 51.6316 229.47 51.0847C229.853 50.5288 230.327 50.0958 230.892 49.7859C231.466 49.4669 232.127 49.3074 232.874 49.3074C233.995 49.3074 234.884 49.6446 235.54 50.3191C236.206 50.9845 236.538 51.8413 236.538 52.8894C236.538 53.6004 236.411 54.2338 236.155 54.7898C235.909 55.3367 235.554 55.797 235.089 56.1707C234.624 56.5444 234.073 56.8269 233.435 57.0183C232.797 57.2006 232.095 57.2918 231.329 57.2918H230.208C230.272 57.7019 230.359 58.1121 230.468 58.5222C230.577 58.9324 230.732 59.3061 230.933 59.6433C231.142 59.9715 231.416 60.2449 231.753 60.4637C232.09 60.6824 232.51 60.7918 233.011 60.7918C233.594 60.7918 234.068 60.6687 234.433 60.4226C234.797 60.1765 235.085 59.8621 235.294 59.4793C235.513 59.0965 235.663 58.6681 235.745 58.1941C235.827 57.7202 235.868 57.2599 235.868 56.8133H236.771C236.771 57.4422 236.698 58.0483 236.552 58.6316C236.415 59.2058 236.192 59.7208 235.882 60.1765C235.572 60.6232 235.171 60.9741 234.679 61.2293C234.187 61.4936 233.585 61.6258 232.874 61.6258C231.398 61.6258 230.267 61.1199 229.484 60.1082C228.7 59.0874 228.308 57.5379 228.308 55.4597ZM230.126 56.4441H231.165C232.195 56.4441 233.043 56.157 233.708 55.5828C234.383 54.9995 234.72 54.1472 234.72 53.0262C234.72 52.6889 234.693 52.3517 234.638 52.0144C234.583 51.6681 234.483 51.3536 234.337 51.0711C234.2 50.7885 234.004 50.5652 233.749 50.4012C233.503 50.228 233.175 50.1414 232.765 50.1414C232.2 50.1414 231.744 50.31 231.398 50.6472C231.06 50.9845 230.796 51.4129 230.605 51.9324C230.422 52.4428 230.295 53.017 230.222 53.6551C230.158 54.284 230.126 54.8855 230.126 55.4597V56.4441Z" fill="#A3FF77"/>
</g>
<g filter="url(#filter1_dddd)">
<path d="M33.9211 66.4783C33.9211 66.4783 39.2267 51.5323 48.0828 46.7638L48.4121 46.0521C48.4121 46.0521 46.7654 46.835 43.966 47.9737C41.1666 49.1124 38.2849 48.8752 36.5559 48.5431C34.8268 48.2109 30.5454 46.7638 31.0394 42.28C31.5334 37.7962 36.5559 37.3692 36.5559 37.3692C36.5559 37.3692 34.6638 35.4503 34.4975 33.953C34.2238 31.4894 35.9062 29.7517 38.4496 28.6151C41.5082 27.2482 44.2257 28.3124 47.141 29.8962C50.958 31.9698 52.5289 38.7214 52.5289 38.7214C52.5289 38.7214 52.5289 35.7322 52.5289 33.4548C52.5289 31.1773 53.654 28.1361 56.6457 26.5511C59.6613 24.9535 62.9031 24.0601 65.7025 26.5511C68.5019 29.0421 67.2669 32.3872 67.2669 32.3872C67.2669 32.3872 73.1951 31.6755 74.3478 35.7322C75.5004 39.789 74.3478 41.3548 71.0543 43.4187C67.7609 45.4827 57.5514 43.9169 57.5514 43.9169C57.5514 43.9169 64.7981 45.5325 66.7729 49.5319C68.7477 53.5313 67.7609 56.3008 67.7609 56.3008C67.7609 56.3008 67.1022 59.1476 62.3268 60.0728C57.5514 60.9981 56.6457 57.9377 56.6457 57.9377C56.6457 58.4359 53.6816 63.0278 48.4121 61.4251C43.1427 59.8224 43.966 56.3008 43.966 54.8773C43.966 53.4539 47.3418 47.6179 47.3418 47.6179" stroke="#A3FF77"/>
</g>
<defs>
<filter id="filter0_dd" x="56.632" y="19.5496" width="200.139" height="64.0762" filterUnits="userSpaceOnUse" color-interpolation-filters="sRGB">
<feFlood flood-opacity="0" result="BackgroundImageFix"/>
<feColorMatrix in="SourceAlpha" type="matrix" values="0 0 0 0 0 0 0 0 0 0 0 0 0 0 0 0 0 0 127 0" result="hardAlpha"/>
<feOffset dy="2"/>
<feGaussianBlur stdDeviation="5"/>
<feComposite in2="hardAlpha" operator="out"/>
<feColorMatrix type="matrix" values="0 0 0 0 0 0 0 0 0 0.878431 0 0 0 0 0.407843 0 0 0 1 0"/>
<feBlend mode="normal" in2="BackgroundImageFix" result="effect1_dropShadow"/>
<feColorMatrix in="SourceAlpha" type="matrix" values="0 0 0 0 0 0 0 0 0 0 0 0 0 0 0 0 0 0 127 0" result="hardAlpha"/>
<feOffset dy="2"/>
<feGaussianBlur stdDeviation="10"/>
<feComposite in2="hardAlpha" operator="out"/>
<feColorMatrix type="matrix" values="0 0 0 0 1 0 0 0 0 1 0 0 0 0 1 0 0 0 1 0"/>
<feBlend mode="normal" in2="effect1_dropShadow" result="effect2_dropShadow"/>
<feBlend mode="normal" in="SourceGraphic" in2="effect2_dropShadow" result="shape"/>
</filter>
<filter id="filter1_dddd" x="0.499935" y="-5.49997" width="104.783" height="102.146" filterUnits="userSpaceOnUse" color-interpolation-filters="sRGB">
<feFlood flood-opacity="0" result="BackgroundImageFix"/>
<feColorMatrix in="SourceAlpha" type="matrix" values="0 0 0 0 0 0 0 0 0 0 0 0 0 0 0 0 0 0 127 0" result="hardAlpha"/>
<feOffset/>
<feGaussianBlur stdDeviation="15"/>
<feComposite in2="hardAlpha" operator="out"/>
<feColorMatrix type="matrix" values="0 0 0 0 0 0 0 0 0 0.878431 0 0 0 0 0.407843 0 0 0 1 0"/>
<feBlend mode="normal" in2="BackgroundImageFix" result="effect1_dropShadow"/>
<feColorMatrix in="SourceAlpha" type="matrix" values="0 0 0 0 0 0 0 0 0 0 0 0 0 0 0 0 0 0 127 0" result="hardAlpha"/>
<feOffset dx="1" dy="1"/>
<feGaussianBlur stdDeviation="5"/>
<feComposite in2="hardAlpha" operator="out"/>
<feColorMatrix type="matrix" values="0 0 0 0 0 0 0 0 0 0.878431 0 0 0 0 0.407843 0 0 0 1 0"/>
<feBlend mode="normal" in2="effect1_dropShadow" result="effect2_dropShadow"/>
<feColorMatrix in="SourceAlpha" type="matrix" values="0 0 0 0 0 0 0 0 0 0 0 0 0 0 0 0 0 0 127 0" result="hardAlpha"/>
<feOffset dy="4"/>
<feGaussianBlur stdDeviation="2"/>
<feComposite in2="hardAlpha" operator="out"/>
<feColorMatrix type="matrix" values="0 0 0 0 0 0 0 0 0 0.878431 0 0 0 0 0.407843 0 0 0 1 0"/>
<feBlend mode="normal" in2="effect2_dropShadow" result="effect3_dropShadow"/>
<feColorMatrix in="SourceAlpha" type="matrix" values="0 0 0 0 0 0 0 0 0 0 0 0 0 0 0 0 0 0 127 0" result="hardAlpha"/>
<feOffset dx="2" dy="2"/>
<feGaussianBlur stdDeviation="2"/>
<feComposite in2="hardAlpha" operator="out"/>
<feColorMatrix type="matrix" values="0 0 0 0 0.952941 0 0 0 0 0.952941 0 0 0 0 0.952941 0 0 0 1 0"/>
<feBlend mode="normal" in2="effect3_dropShadow" result="effect4_dropShadow"/>
<feBlend mode="normal" in="SourceGraphic" in2="effect4_dropShadow" result="shape"/>
</filter>
</defs>
</svg>
